<svg width="154" height="36" viewBox="0 0 154 36" fill="none" xmlns="http://www.w3.org/2000/svg">
<path fill-rule="evenodd" clip-rule="evenodd" d="M15.6586 0.134125C6.69119 1.54744 0.0142292 9.07527 2.43071e-05 17.7882C-0.0114037 24.8421 4.00763 31.1732 10.4115 34.189C16.058 36.848 22.6203 36.5655 28.0342 33.4303C29.7177 32.4553 31.956 30.5167 33.1656 28.986C36.295 25.0256 37.6104 19.803 36.7341 14.8173C36.6636 14.4163 36.573 14.0283 36.5329 13.9552C36.4857 13.8692 36.2735 14.0892 35.9318 14.5784C33.1752 18.5256 28.6374 23.3937 25.2573 26.0299C23.0004 27.7902 20.3541 29.259 18.4218 29.8238C17.1615 30.1921 14.9454 30.2946 13.8769 30.0338C11.4282 29.4362 9.68053 27.744 9.02358 25.3343C7.77782 20.7654 10.3988 13.3978 14.8027 9.08902C17.5007 6.44935 20.6753 5.28506 23.5796 5.86996C26.0809 6.37373 27.3352 7.94452 27.3387 10.5775C27.3408 12.2182 26.7793 14.1995 25.7397 16.2197C24.7527 18.1378 23.3023 19.8785 22.334 20.3075C21.1078 20.8506 18.792 20.2109 18.2933 19.1912C18.0799 18.7548 18.1614 18.6411 18.849 18.4164C19.5028 18.2027 20.0557 17.788 21.0627 16.7561C23.4467 14.3133 25.5079 10.2123 25.0979 8.72772C24.8722 7.91036 24.2921 7.67071 23.059 7.88557C21.2517 8.20052 19.4763 9.50249 17.7251 11.7969C14.377 16.1837 12.1924 22.8356 12.9843 26.2312C13.1972 27.144 13.6403 27.743 14.364 28.0963C15.0767 28.4443 16.4214 28.4494 17.6742 28.1089C22.0345 26.9237 28.0946 21.8192 34.7345 13.7388C35.4239 12.8999 35.9886 12.1599 35.9895 12.0944C35.9922 11.8893 34.9856 9.7486 34.5267 8.9832C31.803 4.44207 27.4836 1.40236 22.1531 0.27556C20.7685 -0.0171004 17.122 -0.0964626 15.6586 0.134125Z" fill="white"/>
<path d="M53.2456 18.4763C52.0616 18.4763 50.9622 18.2931 49.9473 17.9266C48.9466 17.546 48.0727 17.0104 47.3257 16.3198C46.5927 15.6291 46.0219 14.8116 45.6131 13.8672C45.2044 12.9229 45 11.8798 45 10.7382C45 9.59646 45.2044 8.55343 45.6131 7.60906C46.0219 6.6647 46.5927 5.84719 47.3257 5.15653C48.0727 4.46588 48.9466 3.93732 49.9473 3.57085C50.9622 3.19028 52.0616 3 53.2456 3C54.6974 3 55.98 3.25371 57.0935 3.76113C58.2211 4.26855 59.1514 5.00149 59.8843 5.95995L56.7341 8.7719C56.2971 8.2222 55.8109 7.79935 55.2753 7.50335C54.7537 7.19326 54.1617 7.03822 53.4993 7.03822C52.9778 7.03822 52.5056 7.12279 52.0827 7.29193C51.6599 7.46107 51.2934 7.70773 50.9833 8.03191C50.6873 8.3561 50.4548 8.75076 50.2856 9.21589C50.1165 9.66693 50.0319 10.1744 50.0319 10.7382C50.0319 11.302 50.1165 11.8164 50.2856 12.2816C50.4548 12.7326 50.6873 13.1202 50.9833 13.4444C51.2934 13.7686 51.6599 14.0152 52.0827 14.1844C52.5056 14.3535 52.9778 14.4381 53.4993 14.4381C54.1617 14.4381 54.7537 14.2901 55.2753 13.9941C55.8109 13.684 56.2971 13.2541 56.7341 12.7044L59.8843 15.5164C59.1514 16.4607 58.2211 17.1937 57.0935 17.7152C55.98 18.2226 54.6974 18.4763 53.2456 18.4763Z" fill="white"/>
<path d="M61.8374 18.138L68.307 3.33828H73.212L79.6816 18.138H74.5229L69.7446 5.70624H71.6898L66.9116 18.138H61.8374ZM65.6853 15.5586L66.9538 11.9644H73.7617L75.0303 15.5586H65.6853Z" fill="white"/>
<path d="M88.3218 18.4763C87.0814 18.4763 85.8834 18.3354 84.7276 18.0535C83.5718 17.7716 82.6204 17.4051 81.8733 16.954L83.4802 13.3175C84.1849 13.7263 84.9672 14.0575 85.827 14.3112C86.7009 14.5508 87.5466 14.6707 88.3641 14.6707C88.8433 14.6707 89.2168 14.6425 89.4846 14.5861C89.7665 14.5156 89.9709 14.424 90.0978 14.3112C90.2246 14.1844 90.288 14.0364 90.288 13.8672C90.288 13.5994 90.1401 13.388 89.8441 13.233C89.5481 13.0779 89.1534 12.9511 88.6601 12.8524C88.1808 12.7396 87.6523 12.6269 87.0744 12.5141C86.4965 12.3873 85.9116 12.2252 85.3196 12.0278C84.7417 11.8305 84.2061 11.5698 83.7127 11.2456C83.2335 10.9214 82.8459 10.4985 82.5499 9.97702C82.2539 9.44141 82.1059 8.77895 82.1059 7.98963C82.1059 7.07345 82.3596 6.24185 82.867 5.49481C83.3885 4.73368 84.1567 4.1276 85.1716 3.67656C86.2005 3.22552 87.4761 3 88.9984 3C89.9991 3 90.9857 3.10571 91.9583 3.31714C92.9309 3.52856 93.8048 3.85275 94.58 4.28969L93.0789 7.90506C92.3459 7.53859 91.6341 7.26374 90.9435 7.0805C90.2669 6.89727 89.6044 6.80565 88.9561 6.80565C88.4768 6.80565 88.0963 6.84793 87.8144 6.9325C87.5325 7.01707 87.3281 7.12983 87.2012 7.27078C87.0885 7.41173 87.0321 7.56678 87.0321 7.73592C87.0321 7.98963 87.1801 8.19401 87.4761 8.34905C87.7721 8.49 88.1597 8.60981 88.6389 8.70847C89.1323 8.80714 89.6679 8.91285 90.2458 9.02561C90.8378 9.13837 91.4227 9.29341 92.0006 9.49074C92.5785 9.68807 93.107 9.94883 93.5863 10.273C94.0796 10.5972 94.4743 11.0201 94.7703 11.5416C95.0663 12.0631 95.2142 12.7115 95.2142 13.4867C95.2142 14.3888 94.9535 15.2204 94.432 15.9815C93.9246 16.7285 93.1634 17.3346 92.1486 17.7997C91.1337 18.2508 89.8582 18.4763 88.3218 18.4763Z" fill="white"/>
<path d="M97.4179 18.138L103.887 3.33828H108.793L115.262 18.138H110.103L105.325 5.70624H107.27L102.492 18.138H97.4179ZM101.266 15.5586L102.534 11.9644H109.342L110.611 15.5586H101.266Z" fill="white"/>
<path d="M118.384 18.138V3.33828H122.486L130.012 12.345H128.11V3.33828H132.972V18.138H128.871L121.344 9.13132H123.247V18.138H118.384Z" fill="white"/>
<path d="M145.462 18.4763C144.263 18.4763 143.15 18.286 142.121 17.9055C141.106 17.5249 140.225 16.9893 139.478 16.2986C138.731 15.5939 138.146 14.7693 137.723 13.825C137.315 12.8806 137.11 11.8517 137.11 10.7382C137.11 9.61055 137.315 8.58162 137.723 7.65135C138.146 6.70698 138.731 5.88947 139.478 5.19882C140.225 4.49407 141.106 3.95141 142.121 3.57085C143.15 3.19028 144.263 3 145.462 3C146.674 3 147.787 3.19028 148.802 3.57085C149.817 3.95141 150.698 4.49407 151.445 5.19882C152.192 5.88947 152.77 6.70698 153.179 7.65135C153.601 8.58162 153.813 9.61055 153.813 10.7382C153.813 11.8517 153.601 12.8806 153.179 13.825C152.77 14.7693 152.192 15.5939 151.445 16.2986C150.698 16.9893 149.817 17.5249 148.802 17.9055C147.787 18.286 146.674 18.4763 145.462 18.4763ZM145.462 14.4381C145.927 14.4381 146.357 14.3535 146.751 14.1844C147.16 14.0152 147.512 13.7756 147.808 13.4655C148.118 13.1413 148.358 12.7537 148.527 12.3027C148.696 11.8376 148.781 11.316 148.781 10.7382C148.781 10.1603 148.696 9.64579 148.527 9.19475C148.358 8.72961 148.118 8.342 147.808 8.03191C147.512 7.70773 147.16 7.46107 146.751 7.29193C146.357 7.12279 145.927 7.03822 145.462 7.03822C144.996 7.03822 144.559 7.12279 144.151 7.29193C143.756 7.46107 143.404 7.70773 143.094 8.03191C142.798 8.342 142.565 8.72961 142.396 9.19475C142.227 9.64579 142.142 10.1603 142.142 10.7382C142.142 11.316 142.227 11.8376 142.396 12.3027C142.565 12.7537 142.798 13.1413 143.094 13.4655C143.404 13.7756 143.756 14.0152 144.151 14.1844C144.559 14.3535 144.996 14.4381 145.462 14.4381Z" fill="white"/>
<path d="M49.252 32.8979L51.2051 28.43H52.6859L54.639 32.8979H53.0816L51.6391 29.1449H52.2263L50.7839 32.8979H49.252ZM50.4137 32.1192L50.7966 31.0341H52.8518L53.2348 32.1192H50.4137Z" fill="white"/>
<path d="M71.3672 33C71.0055 33 70.6715 32.9447 70.3652 32.8341C70.063 32.7192 69.7992 32.5575 69.5737 32.349C69.3524 32.1405 69.1801 31.8937 69.0567 31.6086C68.9333 31.3235 68.8716 31.0086 68.8716 30.664C68.8716 30.3193 68.9333 30.0044 69.0567 29.7193C69.1801 29.4342 69.3546 29.1874 69.5801 28.9789C69.8056 28.7704 70.0716 28.6109 70.3779 28.5002C70.6885 28.3854 71.029 28.3279 71.3991 28.3279C71.8417 28.3279 72.2353 28.4024 72.5799 28.5513C72.9289 28.7002 73.2161 28.913 73.4416 29.1896L72.4778 30.0385C72.3374 29.8768 72.1842 29.7555 72.0183 29.6746C71.8566 29.5895 71.6757 29.547 71.4757 29.547C71.3098 29.547 71.1587 29.5725 71.0226 29.6236C70.8907 29.6746 70.7779 29.7491 70.6843 29.847C70.5907 29.9448 70.5183 30.0619 70.4673 30.198C70.4162 30.3342 70.3907 30.4895 70.3907 30.664C70.3907 30.8299 70.4162 30.9831 70.4673 31.1235C70.5183 31.2597 70.5907 31.3767 70.6843 31.4745C70.7779 31.5724 70.8885 31.649 71.0162 31.7043C71.1481 31.7554 71.2949 31.7809 71.4566 31.7809C71.6268 31.7809 71.7927 31.7533 71.9544 31.6979C72.1161 31.6384 72.2885 31.5384 72.4714 31.398L73.3139 32.4319C73.0416 32.6149 72.731 32.7553 72.3821 32.8532C72.0332 32.9511 71.6949 33 71.3672 33ZM72.0055 32.2405V30.5427H73.3139V32.4319L72.0055 32.2405Z" fill="white"/>
<path d="M89.5677 30.0895H91.5591V31.1746H89.5677V30.0895ZM89.6698 31.7618H91.9037V32.8979H88.189V28.43H91.8208V29.5661H89.6698V31.7618Z" fill="white"/>
<path d="M106.717 32.8979V28.43H107.955L110.227 31.149H109.653V28.43H111.121V32.8979H109.883L107.61 30.1789H108.185V32.8979H106.717Z" fill="white"/>
<path d="M128.39 33C128.033 33 127.701 32.9447 127.395 32.8341C127.093 32.7192 126.829 32.5575 126.603 32.349C126.382 32.1405 126.21 31.8937 126.086 31.6086C125.963 31.3235 125.901 31.0086 125.901 30.664C125.901 30.3193 125.963 30.0044 126.086 29.7193C126.21 29.4342 126.382 29.1874 126.603 28.9789C126.829 28.7704 127.093 28.6109 127.395 28.5002C127.701 28.3854 128.033 28.3279 128.39 28.3279C128.829 28.3279 129.216 28.4045 129.552 28.5577C129.893 28.7109 130.173 28.9321 130.395 29.2215L129.444 30.0704C129.312 29.9044 129.165 29.7768 129.003 29.6874C128.846 29.5938 128.667 29.547 128.467 29.547C128.31 29.547 128.167 29.5725 128.039 29.6236C127.912 29.6746 127.801 29.7491 127.708 29.847C127.618 29.9448 127.548 30.064 127.497 30.2044C127.446 30.3406 127.42 30.4937 127.42 30.664C127.42 30.8342 127.446 30.9895 127.497 31.1299C127.548 31.266 127.618 31.3831 127.708 31.4809C127.801 31.5788 127.912 31.6533 128.039 31.7043C128.167 31.7554 128.31 31.7809 128.467 31.7809C128.667 31.7809 128.846 31.7362 129.003 31.6469C129.165 31.5533 129.312 31.4235 129.444 31.2575L130.395 32.1064C130.173 32.3915 129.893 32.6128 129.552 32.7702C129.216 32.9234 128.829 33 128.39 33Z" fill="white"/>
<path d="M146.212 32.8979V30.9384L146.556 31.8384L144.527 28.43H146.116L147.488 30.7597H146.563L147.948 28.43H149.403L147.386 31.8384L147.718 30.9384V32.8979H146.212Z" fill="white"/>
</svg>
